<?xml version="1.0" encoding="UTF-8" standalone="no"?>
<svg
   xmlns:dc="http://purl.org/dc/elements/1.1/"
   xmlns:cc="http://creativecommons.org/ns#"
   xmlns:rdf="http://www.w3.org/1999/02/22-rdf-syntax-ns#"
   xmlns:svg="http://www.w3.org/2000/svg"
   xmlns="http://www.w3.org/2000/svg"
   xmlns:sodipodi="http://sodipodi.sourceforge.net/DTD/sodipodi-0.dtd"
   xmlns:inkscape="http://www.inkscape.org/namespaces/inkscape"
   width="60.999863mm"
   height="42.956722mm"
   viewBox="0 0 60.999863 42.956722"
   version="1.1"
   id="svg8"
   inkscape:version="1.0.1 (3bc2e813f5, 2020-09-07, custom)"
   sodipodi:docname="power_control_decal.svg">
  <defs
     id="defs2" />
  <sodipodi:namedview
     id="base"
     pagecolor="#000000"
     bordercolor="#666666"
     borderopacity="1.0"
     inkscape:pageopacity="0"
     inkscape:pageshadow="2"
     inkscape:zoom="1.979899"
     inkscape:cx="80.364351"
     inkscape:cy="16.469076"
     inkscape:document-units="mm"
     inkscape:current-layer="layer1"
     inkscape:document-rotation="0"
     showgrid="false"
     fit-margin-top="0"
     fit-margin-left="0"
     fit-margin-right="0"
     fit-margin-bottom="0"
     inkscape:window-width="1920"
     inkscape:window-height="1016"
     inkscape:window-x="0"
     inkscape:window-y="27"
     inkscape:window-maximized="1" />
  <metadata
     id="metadata5">
    <rdf:RDF>
      <cc:Work
         rdf:about="">
        <dc:format>image/svg+xml</dc:format>
        <dc:type
           rdf:resource="http://purl.org/dc/dcmitype/StillImage" />
        <dc:title></dc:title>
      </cc:Work>
    </rdf:RDF>
  </metadata>
  <g
     inkscape:label="Ebene 1"
     inkscape:groupmode="layer"
     id="layer1"
     transform="translate(-18.169735,-26.165069)">
    <path
       style="fill:#ffff00;stroke-width:0.0582058"
       d="m 33.838184,67.914018 c 0.653208,-0.664275 1.367531,-1.39767 1.587383,-1.629766 l 0.399735,-0.421991 h -4.259088 -4.25909 l -1.327673,1.353286 c -0.730223,0.744308 -1.440531,1.477703 -1.578465,1.629765 l -0.250788,0.276478 h 4.25017 4.250167 z m 17.50382,-0.421993 1.586903,-1.629764 h -4.276242 -4.27624 l -1.585513,1.629764 -1.585514,1.629765 h 4.274853 4.274849 z m 16.663042,0.421993 c 0.653208,-0.664275 1.367531,-1.39767 1.587386,-1.629766 l 0.399734,-0.421991 h -4.25909 -4.25909 l -1.327673,1.353286 c -0.730222,0.744308 -1.440531,1.477703 -1.578463,1.629765 l -0.250789,0.276478 h 4.250169 4.250169 z m 11.164553,-0.725587 v -1.933356 l -0.324783,0.318144 c -0.178629,0.174979 -1.033027,1.04499 -1.898664,1.933356 l -1.573889,1.615215 h 1.898666 1.89867 z M 20.226157,64.3713 l 1.203189,-1.229034 -0.0013,-4.387835 -0.0013,-4.387836 -1.625605,1.658867 -1.625606,1.65887 -0.0029,4.394076 -0.0029,4.394074 0.426575,-0.436074 c 0.234618,-0.239841 0.968013,-0.98914 1.629765,-1.665108 z m 13.178698,-0.984703 c 0.270534,-0.112706 0.62918,-0.452502 0.77435,-0.73365 0.171797,-0.332718 0.244245,-0.919605 0.167747,-1.358888 -0.157493,-0.904397 -0.868294,-1.437811 -1.803011,-1.353053 -0.399979,0.03627 -0.877981,0.274942 -1.07933,0.53892 -0.646608,0.84775 -0.510548,2.226197 0.270773,2.743253 0.469674,0.310816 1.154706,0.377871 1.669471,0.163418 z m -1.125867,-0.487333 c -0.425345,-0.193169 -0.633155,-0.639617 -0.594311,-1.276798 0.04361,-0.715335 0.370101,-1.113191 0.953211,-1.161547 0.382647,-0.03173 0.607834,0.05271 0.837173,0.313907 0.209317,0.238398 0.293991,0.524636 0.291056,0.983918 -0.0039,0.608712 -0.184196,0.947216 -0.608281,1.141957 -0.296444,0.136128 -0.576946,0.135668 -0.878848,-0.0015 z m 16.772714,0.491468 c 0.184944,-0.07727 0.200064,-0.102936 0.200064,-0.339544 v -0.255953 l -0.305581,0.105569 c -0.584632,0.201969 -1.132354,0.09222 -1.455318,-0.2916 -0.461981,-0.549031 -0.324003,-1.585049 0.262818,-1.973388 0.298099,-0.197272 0.889782,-0.24787 1.231062,-0.105274 0.122667,0.05125 0.232927,0.09319 0.245024,0.09319 0.0121,0 0.022,-0.128794 0.022,-0.286208 v -0.286206 l -0.293895,-0.06303 c -0.708121,-0.151864 -1.292061,-0.02114 -1.751734,0.392143 -0.158622,0.142613 -0.339428,0.359315 -0.401791,0.481555 -0.20957,0.410794 -0.247826,1.205675 -0.07958,1.653436 0.166898,0.444168 0.5731,0.802467 1.068973,0.942909 0.313991,0.08893 0.967372,0.05382 1.25796,-0.0676 z m 2.902769,0.0031 c 0.343861,-0.143676 0.714273,-0.534885 0.850674,-0.89844 0.160901,-0.428857 0.172814,-1.083092 0.02766,-1.519076 -0.149845,-0.450077 -0.548483,-0.837692 -0.995023,-0.967504 -0.711551,-0.206853 -1.4753,0.02024 -1.862669,0.553831 -0.589298,0.811757 -0.437526,2.119666 0.306665,2.642701 0.456578,0.320896 1.164795,0.400702 1.672693,0.188488 z M 50.813458,62.8922 c -0.404415,-0.213631 -0.598683,-0.653243 -0.561102,-1.269734 0.04361,-0.715335 0.370102,-1.113189 0.953212,-1.161545 0.382647,-0.03173 0.607836,0.0527 0.837175,0.313905 0.3823,0.435417 0.40337,1.332843 0.04342,1.849238 -0.246498,0.353627 -0.864415,0.483813 -1.272702,0.268136 z m 14.546135,0.459004 c 0.347544,-0.166163 0.69635,-0.583642 0.807718,-0.966736 0.137697,-0.473656 0.09277,-1.240249 -0.09424,-1.608174 -0.362807,-0.713787 -1.201168,-1.021605 -2.044876,-0.750811 -0.418176,0.134216 -0.809698,0.522614 -0.958527,0.950879 -0.154809,0.44547 -0.148038,1.212633 0.01384,1.568163 0.229613,0.504295 0.617723,0.827178 1.127171,0.93773 0.305899,0.06638 0.870726,0.002 1.148911,-0.131051 z m -1.208024,-0.448915 c -0.111547,-0.05934 -0.280966,-0.218141 -0.376484,-0.352903 -0.148008,-0.208813 -0.176963,-0.310195 -0.195944,-0.686041 -0.02587,-0.512299 0.04858,-0.811203 0.266588,-1.070288 0.367351,-0.436574 1.06628,-0.467294 1.487551,-0.06538 0.35527,0.338942 0.432966,1.251925 0.150482,1.768226 -0.248123,0.453498 -0.880803,0.646496 -1.332193,0.406387 z m -35.21366,-0.06673 v -0.640264 l 0.363785,-4.4e-4 c 0.464205,-4.4e-4 0.749161,-0.08055 0.981423,-0.275982 0.482585,-0.406068 0.533804,-1.229745 0.101231,-1.62797 -0.248794,-0.229012 -0.590187,-0.307523 -1.337346,-0.307523 h -0.691154 v 1.707373 c 0,0.939055 0.01747,1.724836 0.0388,1.746177 0.02134,0.02134 0.152306,0.0388 0.29103,0.0388 h 0.252226 z m 0,-1.746177 v -0.640264 l 0.30558,1.17e-4 c 0.424041,1.14e-4 0.693996,0.145346 0.784276,0.421901 0.163126,0.499698 -0.16446,0.858263 -0.784276,0.858448 l -0.30558,6.3e-5 z m 7.7093,1.037498 0.356247,-1.319841 0.27844,1.028811 c 0.15314,0.565847 0.318157,1.167564 0.366703,1.33715 l 0.08826,0.30834 0.32357,-0.01731 0.323572,-0.01731 0.454826,-1.658869 c 0.250154,-0.912377 0.455929,-1.691608 0.457275,-1.731625 0.0015,-0.04863 -0.09203,-0.07276 -0.282474,-0.07276 H 38.7287 l -0.336406,1.393827 -0.336406,1.393835 -0.334715,-1.311422 c -0.184095,-0.721282 -0.348947,-1.348508 -0.366342,-1.393835 -0.02141,-0.05576 -0.125023,-0.08241 -0.320351,-0.08241 h -0.288726 l -0.08685,0.30558 c -0.04777,0.168071 -0.225852,0.803242 -0.39574,1.411494 -0.16989,0.60825 -0.318287,1.053527 -0.329768,0.989499 -0.02589,-0.144367 -0.516464,-2.189753 -0.5968,-2.488301 l -0.05873,-0.218272 h -0.321811 c -0.300417,0 -0.319231,0.0081 -0.28302,0.122216 0.02134,0.06722 0.233108,0.820257 0.470608,1.673419 0.2375,0.853162 0.444131,1.58526 0.459178,1.626887 0.01916,0.05297 0.126497,0.07044 0.357753,0.05821 l 0.330391,-0.01747 z m 5.095996,1.087017 v -0.26193 h -0.669368 -0.669368 v -0.49475 -0.494751 h 0.582061 0.582058 V 61.700541 61.438613 H 40.98653 40.404469 v -0.463677 -0.463679 l 0.625713,-0.01652 0.625716,-0.01652 0.01788,-0.247375 0.01791,-0.247376 h -0.93464 -0.934642 v 1.746177 1.746177 h 0.960399 0.960396 z m 1.222324,-0.436543 v -0.698471 h 0.219872 c 0.120931,0 0.277184,0.04014 0.347232,0.08921 0.07005,0.04906 0.29176,0.363374 0.492693,0.698471 l 0.365334,0.609264 h 0.338577 c 0.254963,0 0.327967,-0.01797 0.295624,-0.07276 -0.287464,-0.486939 -0.800507,-1.222157 -0.950941,-1.362751 l -0.190624,-0.178153 0.16683,-0.05869 c 0.532685,-0.187401 0.775023,-0.960002 0.441486,-1.407521 -0.238301,-0.319739 -0.43897,-0.381653 -1.30781,-0.403511 l -0.800331,-0.02013 v 1.751758 1.751759 h 0.291028 0.29103 z m 0,-1.77528 v -0.552956 h 0.323024 c 0.34363,0 0.629103,0.109679 0.688527,0.264533 0.08809,0.229551 0.03608,0.534549 -0.117297,0.687926 -0.133646,0.133647 -0.201256,0.153453 -0.523853,0.153453 h -0.370401 z m 11.189011,1.135252 0.01562,-1.338497 0.86952,1.338497 0.869518,1.338498 h 0.309151 0.309151 v -1.746181 -1.746177 h -0.296558 -0.296557 l 0.02008,1.333992 0.02009,1.333991 -0.465648,-0.721788 C 55.2528,61.532679 54.866375,60.932384 54.650184,60.59567 L 54.257108,59.983466 H 53.90806 53.559009 v 1.707373 c 0,0.939055 0.01747,1.724836 0.0388,1.746177 0.02134,0.02134 0.151823,0.0388 0.289957,0.0388 h 0.251153 z m 4.468376,-0.145753 v -1.484249 h 0.49475 0.494751 V 60.245396 59.98347 h -1.280531 -1.280529 v 0.261926 0.261928 h 0.49475 0.494751 v 1.484249 1.484251 h 0.291028 0.29103 z m 2.082708,0.771228 0.01639,-0.683918 h 0.218026 c 0.119915,0 0.275337,0.04014 0.345384,0.08921 0.07005,0.04906 0.29176,0.363374 0.492693,0.698471 l 0.365335,0.609264 h 0.306038 c 0.168321,0 0.306038,-0.02528 0.306038,-0.05618 0,-0.104799 -0.65211,-1.077515 -0.883338,-1.317621 l -0.229952,-0.238785 0.178573,-0.07397 c 0.588159,-0.243625 0.76469,-1.021926 0.335103,-1.477421 -0.247676,-0.262612 -0.512548,-0.327666 -1.335733,-0.328055 l -0.683919,-2.2e-4 v 1.749367 1.749365 l 0.276478,-0.01773 0.276478,-0.01773 z m 0.01269,-1.760727 v -0.552956 h 0.282345 c 0.348585,0 0.63309,0.09443 0.708384,0.235118 0.03134,0.05855 0.05614,0.206408 0.05513,0.328563 -0.0032,0.383296 -0.214792,0.542231 -0.721897,0.542231 h -0.323959 z m 8.09062,2.211823 V 62.951971 H 68.139568 67.470199 V 61.46772 59.98347 h -0.29103 -0.29103 v 1.707373 c 0,0.939055 0.01747,1.724836 0.0388,1.746177 0.02134,0.02134 0.453522,0.0388 0.960398,0.0388 h 0.921593 z m 8.748028,-5.087844 1.612623,-1.653697 V 52.1032 47.734042 l -0.441526,0.435089 c -0.242841,0.239297 -0.989332,1.002744 -1.658869,1.696551 l -1.217341,1.261463 v 4.345705 c 0,2.390138 0.02081,4.336973 0.04624,4.326301 0.02544,-0.01067 0.771928,-0.763566 1.658869,-1.673098 z m -57.740565,-10.857886 1.612935,-1.656183 -6.6e-4,-4.382679 -6.6e-4,-4.382678 -1.626045,1.658867 -1.626044,1.658869 -0.0031,4.379993 c -0.0018,2.408996 0.0045,4.379994 0.01375,4.379994 0.0093,0 0.74265,-0.745282 1.629765,-1.656183 z m 57.742932,-6.660771 1.610256,-1.65238 v -4.369944 -4.369943 l -0.325349,0.318144 c -0.178936,0.17498 -0.925426,0.938085 -1.658867,1.69579 l -1.33352,1.377646 v 4.345933 c 0,2.390263 0.02187,4.337204 0.04861,4.326532 0.02674,-0.01067 0.773231,-0.762972 1.658867,-1.67178 z M 21.712788,27.799498 23.305875,26.165845 h -2.568036 -2.568036 l 0.003,2.633817 0.003,2.633817 0.971914,-1.000164 c 0.534552,-0.55009 1.688802,-1.735307 2.565001,-2.633817 z m 17.085118,0.008 1.565675,-1.612569 -4.251049,-0.01493 -4.25105,-0.01493 -1.18802,1.208148 c -0.653413,0.664482 -1.367901,1.398045 -1.587755,1.630141 l -0.399735,0.421993 4.27313,-0.0026 4.273132,-0.0026 z m 17.089318,-0.01191 1.585513,-1.629765 H 53.19789 48.92304 l -1.586904,1.629784 -1.586905,1.629765 h 4.276242 4.276243 z m 17.077547,0.01191 1.565672,-1.612569 -4.250871,-0.01493 -4.250869,-0.01493 -1.217675,1.237251 c -0.669721,0.680488 -1.384147,1.414052 -1.587612,1.630141 l -0.369935,0.39289 4.272807,-0.0026 4.272808,-0.0026 z"
       id="path24"
       sodipodi:nodetypes="sscccsscccscccccccccsscccsscccsccssccccccccccccsccssssssscsssssccsscsssssscsssssssssssssssssssssssssssssssssssscccscscssscccccscccccsscccscscccssscsssscssscccccccccccccccccccccccccccccccssscssscsssccccccccssssccccccccccccccsscccssscccccccccccccccccccccssscssscsscccccccccssssccccccccccsssccscccsscssscccccccsccccccsscssscccccccsccccccsscccccccccccccccccsscccc" />
  </g>
</svg>
